<svg xmlns="http://www.w3.org/2000/svg" viewBox="0 0 512 512" role="img" aria-label="StudyTrack">
  <rect width="512" height="512" fill="#4f46e5"/>
  <circle cx="256" cy="256" r="188" fill="#ffffff" opacity="0.12"/>
  <path fill="#ffffff" d="M112 174 256 100l144 74-144 74-144-74Z"/>
  <path fill="#c7d2fe" d="M166 220v92c0 48 40 86 90 86s90-38 90-86v-92l-90 48-90-48Z"/>
  <path fill="#ffffff" d="M398 196v112a20 20 0 1 1-24 0v-99l24-13Z"/>
  <path fill="#10b981" d="M214 311 245 342l63-76 30 25-91 109-63-64 30-25Z"/>
</svg>
