<svg xmlns="http://www.w3.org/2000/svg" viewBox="0 0 512 512" role="img" aria-label="StudyTrack">
  <rect width="512" height="512" rx="112" fill="#4f46e5"/>
  <circle cx="256" cy="256" r="156" fill="#ffffff" opacity="0.12"/>
  <path fill="#ffffff" d="M128 178 256 112l128 66-128 66-128-66Z"/>
  <path fill="#c7d2fe" d="M176 220v78c0 42 36 74 80 74s80-32 80-74v-78l-80 42-80-42Z"/>
  <path fill="#ffffff" d="M382 197v94a18 18 0 1 1-20 0v-83l20-11Z"/>
  <path fill="#10b981" d="M219 303 245 329l55-66 27 23-78 94-57-57 27-20Z"/>
</svg>
