<svg xmlns="http://www.w3.org/2000/svg" viewBox="0 0 512 512" role="img" aria-label="MiRuta">
  <rect width="512" height="512" fill="#1d4ed8"/>
  <circle cx="256" cy="256" r="188" fill="#ffffff" opacity="0.12"/>
  <g transform="translate(105,118) scale(2.82)">
    <path d="M20 84 V44 Q20 34 28 40 L44 62 Q48 67 52 62 L66 42" fill="none" stroke="#ffffff" stroke-width="14" stroke-linecap="round" stroke-linejoin="round"/>
    <path d="M72 48 Q76 56 76 84" fill="none" stroke="#7fb0ff" stroke-width="14" stroke-linecap="round"/>
    <path d="M71 14 C62 14 55 20.5 55 29 C55 37.5 71 50 71 50 C71 50 87 37.5 87 29 C87 20.5 80 14 71 14 Z" fill="#e63946"/>
    <circle cx="71" cy="28.5" r="6" fill="#ffffff"/>
    <path d="M58.5 23.5 L71 17.5 L83.5 23.5 L71 29.5 Z" fill="#1e2a78"/>
  </g>
</svg>
